# xmcd CD database file
#
# Track frame offsets:
#	150
#	13585
#	25555
#	43710
#	57130
#	71517
#	88395
#	100247
#	110167
#	123757
#	135030
#
# Disc length: 1973 seconds
#
# Revision: 5
# Processed by: cddbd v1.5.2PL0 Copyright (c) Steve Scherf et al.
# Submitted via: CDex 1.51
#
DISCID=8707b30b
DTITLE=Otis Redding - The Soul Album
DYEAR=1966
DGENRE=Soul
TTITLE0=Just One More Day
TTITLE1=It's Growing
TTITLE2=Cigarettes And Coffee
TTITLE3=Chain Gang
TTITLE4=Nobody Knows You (When You're Down And Out)
TTITLE5=Good To Me
TTITLE6=Scratch My Back
TTITLE7=Treat Her Right
TTITLE8=Everybody Makes A Mistake
TTITLE9=Any Ole Way
TTITLE10=634-5789
EXTD=YEAR: 1966
EXTT0=
EXTT1=
EXTT2=
EXTT3=
EXTT4=
EXTT5=
EXTT6=
EXTT7=
EXTT8=
EXTT9=
EXTT10=
PLAYORDER=
